REM DIRINDEX 1\2,1\3,1\4,1\6,1\5\7,1\5\8
REM DIRNAME folder01,folder02,folder03,folder04,folder05,folder06,folder07,folder08
TITLE ""
FILE "DB4500_5th_2A_41.mp3" MP3
  TRACK 01 AUDIO
    TITLE "2:cjc114_1342"
    INDEX 01 00:00:00
  TRACK 02 AUDIO
    TITLE "0:"
    INDEX 01 00:01:05
  TRACK 03 AUDIO
    TITLE "3:cjc114_1343"
    INDEX 01 00:01:32
  TRACK 04 AUDIO
    TITLE "0:"
    INDEX 01 00:02:38
  TRACK 05 AUDIO
    TITLE "4:cjc114_1344"
    INDEX 01 00:02:67
  TRACK 06 AUDIO
    TITLE "0:"
    INDEX 01 00:06:02
  TRACK 07 AUDIO
    TITLE "2:cjc114_1345"
    INDEX 01 00:06:51
  TRACK 08 AUDIO
    TITLE "0:"
    INDEX 01 00:07:56
  TRACK 09 AUDIO
    TITLE "3:cjc114_1346"
    INDEX 01 00:08:11
  TRACK 10 AUDIO
    TITLE "0:"
    INDEX 01 00:09:18
  TRACK 11 AUDIO
    TITLE "4:cjc114_1347"
    INDEX 01 00:09:47
  TRACK 12 AUDIO
    TITLE "0:"
    INDEX 01 00:12:65
  TRACK 13 AUDIO
    TITLE "2:cjc114_1348"
    INDEX 01 00:13:39
  TRACK 14 AUDIO
    TITLE "0:"
    INDEX 01 00:14:41
  TRACK 15 AUDIO
    TITLE "3:cjc114_1349"
    INDEX 01 00:14:70
  TRACK 16 AUDIO
    TITLE "0:"
    INDEX 01 00:15:74
  TRACK 17 AUDIO
    TITLE "4:cjc114_1350"
    INDEX 01 00:16:28
  TRACK 18 AUDIO
    TITLE "0:"
    INDEX 01 00:18:46
  TRACK 19 AUDIO
    TITLE "2:cjc114_1351"
    INDEX 01 00:19:24
  TRACK 20 AUDIO
    TITLE "0:"
    INDEX 01 00:20:34
  TRACK 21 AUDIO
    TITLE "3:cjc114_1352"
    INDEX 01 00:20:57
  TRACK 22 AUDIO
    TITLE "0:"
    INDEX 01 00:22:15
  TRACK 23 AUDIO
    TITLE "4:cjc114_1353"
    INDEX 01 00:22:42
  TRACK 24 AUDIO
    TITLE "0:"
    INDEX 01 00:26:05
  TRACK 25 AUDIO
    TITLE "2:cjc114_1354"
    INDEX 01 00:26:58
  TRACK 26 AUDIO
    TITLE "0:"
    INDEX 01 00:27:61
  TRACK 27 AUDIO
    TITLE "3:cjc114_1355"
    INDEX 01 00:28:15
  TRACK 28 AUDIO
    TITLE "0:"
    INDEX 01 00:29:29
  TRACK 29 AUDIO
    TITLE "4:cjc114_1356"
    INDEX 01 00:29:58
  TRACK 30 AUDIO
    TITLE "0:"
    INDEX 01 00:33:50
  TRACK 31 AUDIO
    TITLE "2:cjc114_1357"
    INDEX 01 00:34:22
  TRACK 32 AUDIO
    TITLE "0:"
    INDEX 01 00:37:44
  TRACK 33 AUDIO
    TITLE "3:cjc114_1358"
    INDEX 01 00:37:71
  TRACK 34 AUDIO
    TITLE "0:"
    INDEX 01 00:38:73
  TRACK 35 AUDIO
    TITLE "4:cjc114_1359"
    INDEX 01 00:39:33
  TRACK 36 AUDIO
    TITLE "0:"
    INDEX 01 00:42:14
  TRACK 37 AUDIO
    TITLE "2:cjc114_1360"
    INDEX 01 00:42:66
  TRACK 38 AUDIO
    TITLE "0:"
    INDEX 01 00:43:62
  TRACK 39 AUDIO
    TITLE "3:cjc114_1361"
    INDEX 01 00:44:14
  TRACK 40 AUDIO
    TITLE "0:"
    INDEX 01 00:45:22
  TRACK 41 AUDIO
    TITLE "4:cjc114_1362"
    INDEX 01 00:45:51
  TRACK 42 AUDIO
    TITLE "0:"
    INDEX 01 00:49:59
  TRACK 43 AUDIO
    TITLE "4:cjc114_1363"
    INDEX 01 00:50:72
  TRACK 44 AUDIO
    TITLE "0:"
    INDEX 01 00:54:62
  TRACK 45 AUDIO
    TITLE "2:cjc114_1364"
    INDEX 01 00:55:40
  TRACK 46 AUDIO
    TITLE "0:"
    INDEX 01 00:56:45
  TRACK 47 AUDIO
    TITLE "3:cjc114_1365"
    INDEX 01 00:56:72
  TRACK 48 AUDIO
    TITLE "0:"
    INDEX 01 00:58:62
  TRACK 49 AUDIO
    TITLE "4:cjc114_1366"
    INDEX 01 00:59:18
  TRACK 50 AUDIO
    TITLE "0:"
    INDEX 01 01:02:44
  TRACK 51 AUDIO
    TITLE "4:cjc114_1367"
    INDEX 01 01:03:14
  TRACK 52 AUDIO
    TITLE "0:"
    INDEX 01 01:06:42
  TRACK 53 AUDIO
    TITLE "2:cjc114_1368"
    INDEX 01 01:07:21
  TRACK 54 AUDIO
    TITLE "0:"
    INDEX 01 01:08:25
  TRACK 55 AUDIO
    TITLE "3:cjc114_1369"
    INDEX 01 01:08:54
  TRACK 56 AUDIO
    TITLE "0:"
    INDEX 01 01:09:61
  TRACK 57 AUDIO
    TITLE "4:cjc114_1370"
    INDEX 01 01:10:14
  TRACK 58 AUDIO
    TITLE "0:"
    INDEX 01 01:13:42
  TRACK 59 AUDIO
    TITLE "4:cjc114_1371"
    INDEX 01 01:14:16
  TRACK 60 AUDIO
    TITLE "0:"
    INDEX 01 01:17:59
  TRACK 61 AUDIO
    TITLE "2:cjc114_1372"
    INDEX 01 01:18:39
  TRACK 62 AUDIO
    TITLE "0:"
    INDEX 01 01:19:34
  TRACK 63 AUDIO
    TITLE "3:cjc114_1373"
    INDEX 01 01:19:66
  TRACK 64 AUDIO
    TITLE "0:"
    INDEX 01 01:20:73
  TRACK 65 AUDIO
    TITLE "4:cjc114_1374"
    INDEX 01 01:21:29
  TRACK 66 AUDIO
    TITLE "0:"
    INDEX 01 01:24:37
